#!OML:ASF G:\JayActor3\Patient Classification 1\Patient 1\Session 6\male.ASF
:FULLY-SPECIFIED
:DEGREES
637
root 23.3832 16.3312 -12.6262 -2.30692 -52.0615 -4.61145
lowerback 7.35274 -0.638882 7.30732
upperback -2.5465 0.0229832 2.76173
thorax -6.83183 -0.252749 -1.19545
lowerneck -6.74986 2.87814 6.44426
upperneck 15.391 4.01099 -6.3686
head 6.01635 1.82181 -2.79546
rclavicle 4.49253e-014 1.98785e-014
rhumerus -28.7431 22.3232 -81.7909
rradius 40.1063
rwrist 0.175358
rhand -18.3553 -3.67709
rfingers 7.12502
rthumb 7.92746 -33.5084
lclavicle 4.49253e-014 1.98785e-014
lhumerus -54.752 -21.9636 93.3129
lradius 41.2858
lwrist 21.9174
lhand -7.13361 7.31787
lfingers 7.12502
lthumb 18.7423 36.435
rfemur 5.52249 -5.42918 26.301
rtibia 21.35
rfoot -23.0344 -14.2949
rtoes 6.13073
lfemur -26.2126 22.8046 -17.1003
ltibia 50.8646
lfoot -6.24047 8.98799
ltoes -7.39303
638
root 23.3078 16.3207 -12.5776 -2.06681 -52.091 -4.84523
lowerback 7.35025 -0.613811 7.44201
upperback -2.54893 0.0692161 2.75753
thorax -6.83063 -0.236171 -1.28077
lowerneck -6.72507 2.87526 6.44045
upperneck 15.3586 4.00073 -6.32347
head 6.00034 1.82059 -2.78124
rclavicle -4.37326e-014 -6.36111e-015
rhumerus -28.7248 22.5642 -81.9982
rradius 40.4375
rwrist 0.173762
rhand -18.3458 -3.61046
rfingers 7.12502
rthumb 7.93663 -33.4415
lclavicle -4.37326e-014 -6.36111e-015
lhumerus -55.057 -21.7955 93.3247
lradius 41.1721
lwrist 21.8142
lhand -6.94536 7.28217
lfingers 7.12502
lthumb 18.9234 36.3817
rfemur 5.95018 -5.54782 26.4264
rtibia 21.0802
rfoot -23.032 -14.1971
rtoes 5.85208
lfemur -26.4823 22.7235 -17.4802
ltibia 49.3499
lfoot -6.29326 8.7774
ltoes -7.78513
639
root 23.2309 16.3103 -12.5273 -1.86485 -52.1279 -5.03438
lowerback 7.30414 -0.591511 7.52724
upperback -2.53227 0.100944 2.74958
thorax -6.78433 -0.222853 -1.34128
lowerneck -6.70482 2.87816 6.44232
upperneck 15.3174 3.99829 -6.28539
head 5.98314 1.82297 -2.76951
rclavicle -4.18442e-014 -3.4191e-014
rhumerus -28.6923 22.8053 -82.2085
rradius 40.7354
rwrist 0.20552
rhand -18.3443 -3.55578
rfingers 7.12502
rthumb 7.93801 -33.3867
lclavicle -4.18442e-014 -3.4191e-014
lhumerus -55.3249 -21.6092 93.3237
lradius 41.0483
lwrist 21.7069
lhand -6.7692 7.25466
lfingers 7.12502
lthumb 19.0928 36.3375
rfemur 6.39719 -5.68739 26.5071
rtibia 20.8009
rfoot -23.0226 -14.0756
rtoes 5.55148
lfemur -26.6694 22.6209 -17.8501
ltibia 47.7642
lfoot -6.34705 8.46966
ltoes -8.16104
640
root 23.1522 16.2998 -12.4757 -1.67985 -52.1797 -5.20752
lowerback 7.21326 -0.570591 7.57315
upperback -2.49024 0.120835 2.74715
thorax -6.68561 -0.211371 -1.37322
lowerneck -6.69624 2.88793 6.44213
upperneck 15.2631 4.00606 -6.25665
head 5.96465 1.82943 -2.75945
rclavicle -1.13605e-013 -3.49861e-014
rhumerus -28.6322 23.0513 -82.4087
rradius 41.0049
rwrist 0.260004
rhand -18.3237 -3.50303
rfingers 7.12502
rthumb 7.95789 -33.3332
lclavicle -1.13605e-013 -3.49861e-014
lhumerus -55.5509 -21.4111 93.3151
lradius 40.9234
lwrist 21.6051
lhand -6.57344 7.2428
lfingers 7.12502
lthumb 19.281 36.307
rfemur 6.86159 -5.82545 26.5697
rtibia 20.5145
rfoot -23.0078 -13.9479
rtoes 5.22071
lfemur -26.7801 22.5024 -18.1868
ltibia 46.1186
lfoot -6.42599 8.08605
ltoes -8.49934
641
root 23.0726 16.2891 -12.4233 -1.48964 -52.2555 -5.37854
lowerback 7.10862 -0.547614 7.60125
upperback -2.45082 0.140312 2.74345
thorax -6.5817 -0.199197 -1.39651
lowerneck -6.68413 2.90016 6.44548
upperneck 15.215 4.01756 -6.23119
head 5.9479 1.83764 -2.75083
rclavicle -5.14852e-014 -1.90833e-014
rhumerus -28.5875 23.2844 -82.6224
rradius 41.2474
rwrist 0.332957
rhand -18.2886 -3.45787
rfingers 7.12502
rthumb 7.99182 -33.2868
lclavicle -5.14852e-014 -1.90833e-014
lhumerus -55.7796 -21.2171 93.3106
lradius 40.8062
lwrist 21.5156
lhand -6.37396 7.25401
lfingers 7.12502
lthumb 19.4728 36.2989
rfemur 7.32293 -5.95159 26.6254
rtibia 20.2279
rfoot -22.9863 -13.815
rtoes 4.83829
lfemur -26.837 22.3757 -18.4866
ltibia 44.4276
lfoot -6.54667 7.65536
ltoes -8.8181
642
root 22.9931 16.2783 -12.3703 -1.26085 -52.3645 -5.58034
lowerback 7.00057 -0.519488 7.64117
upperback -2.4189 0.167821 2.74095
thorax -6.48332 -0.183858 -1.42591
lowerneck -6.6669 2.91475 6.45543
upperneck 15.1697 4.03285 -6.21271
head 5.93167 1.84757 -2.74534
rclavicle 1.01281e-013 2.38542e-014
rhumerus -28.5556 23.5015 -82.8486
rradius 41.463
rwrist 0.415929
rhand -18.2377 -3.42042
rfingers 7.12502
rthumb 8.04097 -33.2475
lclavicle 1.01281e-013 2.38542e-014
lhumerus -56.0137 -21.0402 93.3148
lradius 40.7026
lwrist 21.447
lhand -6.15789 7.29594
lfingers 7.12502
lthumb 19.6806 36.3197
rfemur 7.76425 -6.05493 26.6981
rtibia 19.9481
rfoot -22.9515 -13.6806
rtoes 4.42651
lfemur -26.8611 22.2432 -18.7318
ltibia 42.7076
lfoot -6.71311 7.21951
ltoes -9.14618
643
root 22.9145 16.2674 -12.3171 -0.985286 -52.5131 -5.81458
lowerback 6.89307 -0.483256 7.69707
upperback -2.39919 0.208311 2.73872
thorax -6.39735 -0.163415 -1.46519
lowerneck -6.64872 2.92798 6.46151
upperneck 15.1354 4.04656 -6.19087
head 5.91848 1.85664 -2.73834
rclavicle -4.77083e-014 5.64548e-014
rhumerus -28.5385 23.7005 -83.0863
rradius 41.6521
rwrist 0.492669
rhand -18.1466 -3.37796
rfingers 7.12502
rthumb 8.12886 -33.2016
lclavicle -4.77083e-014 5.64548e-014
lhumerus -56.254 -20.8824 93.326
lradius 40.6094
lwrist 21.3961
lhand -5.9147 7.3572
lfingers 7.12502
lthumb 19.9144 36.3569
rfemur 8.17184 -6.13388 26.7873
rtibia 19.6826
rfoot -22.9001 -13.5382
rtoes 3.991
lfemur -26.8646 22.1009 -18.9218
ltibia 40.9725
lfoot -6.93581 6.81251
ltoes -9.43519
644
root 22.8371 16.2564 -12.2636 -0.653968 -52.7049 -6.08717
lowerback 6.78534 -0.436954 7.77491
upperback -2.39053 0.264763 2.73788
thorax -6.32177 -0.136538 -1.51682
lowerneck -6.64054 2.93988 6.45247
upperneck 15.1153 4.05874 -6.1593
head 5.91088 1.86452 -2.72582
rclavicle -1.44119e-014 2.8625e-014
rhumerus -28.5329 23.8793 -83.3318
rradius 41.817
rwrist 0.578101
rhand -18.0496 -3.33564
rfingers 7.12502
rthumb 8.22249 -33.1556
lclavicle -1.44119e-014 2.8625e-014
lhumerus -56.482 -20.7383 93.34
lradius 40.5131
lwrist 21.356
lhand -5.64832 7.43373
lfingers 7.12502
lthumb 20.1704 36.4066
rfemur 8.53995 -6.17889 26.8982
rtibia 19.4316
rfoot -22.8357 -13.3916
rtoes 3.5391
lfemur -26.8566 21.9429 -19.0525
ltibia 39.2359
lfoot -7.20099 6.47738
ltoes -9.75593
645
root 22.7616 16.2454 -12.2097 -0.268646 -52.9364 -6.39499
lowerback 6.67955 -0.384156 7.87722
upperback -2.39441 0.332809 2.73658
thorax -6.25967 -0.105628 -1.58349
lowerneck -6.63736 2.95392 6.44412
upperneck 15.107 4.07472 -6.13371
head 5.90818 1.87365 -2.71504
rclavicle 1.14997e-013 1.51076e-014
rhumerus -28.5408 24.0579 -83.5914
rradius 41.9591
rwrist 0.662228
rhand -17.9466 -3.29093
rfingers 7.12502
rthumb 8.32189 -33.107
lclavicle 1.14997e-013 1.51076e-014
lhumerus -56.6971 -20.598 93.3498
lradius 40.4126
lwrist 21.3253
lhand -5.3644 7.51827
lfingers 7.12502
lthumb 20.4433 36.4621
rfemur 8.87043 -6.19891 27.0232
rtibia 19.1911
rfoot -22.7557 -13.2303
rtoes 3.07444
lfemur -26.8392 21.7529 -19.1238
ltibia 37.5097
lfoot -7.5009 6.25258
ltoes -10.054
